# xmcd
#
# Track frame offsets:
#	150
#	15327
#	33122
#	50296
#	72323
#	87467
#	100592
#	124599
#	148376
#	169813
#	185782
#
# Disc length: 2760 seconds
#
# Revision: 0
# Processed by: cddbd v1.4PL0 Copyright (c) Steve Scherf et al.
# Submitted via: EasyCDDAExtractor 4.5.0.2
#
DISCID=910ac60b
DTITLE=Jerry Jeff Walker 'live - Viva Luckenbach
DYEAR=1994
DGENRE=Country
TTITLE0=Gettin' By
TTITLE1=Viva Luckenbach
TTITLE2=What I Like About Texas
TTITLE3=Some Phonenumbers
TTITLE4=I'll Be There In The Morning
TTITLE5=I Make Money
TTITLE6=Keep Texas Beautiful
TTITLE7=The Gift
TTITLE8=Little Man
TTITLE9=Gonzo Compadres
TTITLE10=Movin' On
EXTD=
EXTT0=
EXTT1=
EXTT2=
EXTT3=
EXTT4=
EXTT5=
EXTT6=
EXTT7=
EXTT8=
EXTT9=
EXTT10=
PLAYORDER=
